<?xml version="1.0" standalone="no"?>
<!DOCTYPE svg PUBLIC "-//W3C//DTD SVG 20010904//EN"
 "http://www.w3.org/TR/2001/REC-SVG-20010904/DTD/svg10.dtd">
<svg version="1.0" xmlns="http://www.w3.org/2000/svg"
 width="554.000000pt" height="107.000000pt" viewBox="0 0 554.000000 107.000000"
 preserveAspectRatio="xMidYMid meet">

<g transform="translate(0.000000,107.000000) scale(0.100000,-0.100000)"
fill="#000000" stroke="none">
<path d="M471 1029 c-77 -13 -190 -70 -254 -129 -71 -65 -122 -143 -119 -184
1 -20 -1 -26 -6 -18 -12 18 -33 -56 -39 -142 -20 -284 218 -536 507 -536 129
0 264 56 353 146 50 49 105 128 112 158 1 6 7 24 14 40 17 43 33 166 26 211
-11 77 -27 127 -37 113 -6 -9 -8 -5 -6 12 2 14 -4 32 -12 40 -12 11 -12 12 -1
5 31 -21 -36 81 -89 135 -117 120 -285 176 -449 149z m-56 -38 c-10 -8 -207
-140 -235 -156 -32 -18 12 25 63 62 63 46 204 124 172 94z m-231 -198 c4 -9 2
-21 -4 -27 -13 -13 -46 17 -36 33 11 16 33 13 40 -6z m790 1 c7 -19 -1 -34
-19 -34 -15 0 -28 27 -19 41 9 14 31 10 38 -7z m-266 -5 c17 -6 32 -14 32 -18
0 -4 15 -6 33 -5 l32 3 -35 -9 c-27 -7 -42 -5 -65 9 -25 15 -51 18 -157 16
-89 -1 -133 -6 -150 -16 -16 -10 -37 -12 -68 -8 l-45 6 46 1 c25 1 49 6 55 11
13 13 44 17 174 19 63 1 130 -3 148 -9z m-435 -26 c-7 -2 -19 -2 -25 0 -7 3
-2 5 12 5 14 0 19 -2 13 -5z m580 0 c-7 -2 -21 -2 -30 0 -10 3 -4 5 12 5 17 0
24 -2 18 -5z m65 0 c-10 -2 -26 -2 -35 0 -10 3 -2 5 17 5 19 0 27 -2 18 -5z
m-788 -7 c0 -2 -8 -10 -17 -17 -16 -13 -17 -12 -4 4 13 16 21 21 21 13z m554
-15 c15 -16 14 -18 -3 -16 -11 1 -28 8 -38 16 -17 13 -17 13 -3 -5 13 -18 13
-19 -1 -14 -14 6 -16 -1 -12 -48 l5 -54 -35 0 c-33 0 -36 3 -40 33 -2 17 -4
-4 -4 -48 0 -47 2 -68 6 -50 5 25 11 30 36 30 28 0 30 -2 29 -38 -2 -44 -24
-66 -69 -67 -51 0 -75 24 -75 76 0 31 -4 43 -11 38 -8 -4 -9 1 -4 16 6 20 5
21 -7 9 -8 -7 -13 -21 -10 -31 2 -10 -1 -18 -7 -18 -7 0 -10 4 -6 10 3 5 -3
18 -15 30 -26 26 -28 110 -4 135 24 24 246 21 268 -4z m-338 -12 c19 0 21 -5
23 -66 2 -69 -6 -85 -11 -21 -1 20 -6 34 -10 32 -5 -3 -6 -10 -3 -15 5 -8 -6
-13 -26 -11 -3 0 -6 -15 -7 -34 -2 -30 1 -36 26 -45 24 -8 28 -15 29 -47 1
-20 -1 -28 -4 -17 -7 26 -23 44 -23 25 0 -13 -2 -13 -11 0 -9 12 -10 11 -6 -7
5 -20 1 -23 -29 -23 -28 0 -34 4 -35 23 l-2 22 -4 -22 c-6 -31 -63 -34 -63 -4
0 11 -4 23 -10 26 -5 3 -10 1 -10 -6 0 -8 -5 -7 -17 2 -15 12 -16 12 -8 -1 6
-12 6 -13 -6 -2 -8 8 -15 41 -17 88 -4 62 -1 78 14 95 17 18 26 20 104 14 47
-4 94 -7 106 -6z m652 -94 c2 -43 0 -85 -4 -94 -4 -9 -6 -19 -6 -23 1 -5 -3
-8 -8 -8 -6 0 -10 6 -10 13 0 8 -4 7 -10 -3 -7 -11 -10 -12 -10 -2 0 10 -4 10
-16 -2 -17 -17 -134 -23 -134 -7 0 5 -11 11 -24 13 -19 4 -26 0 -29 -16 -2
-12 -4 13 -4 54 -1 41 1 67 4 58 5 -21 26 -23 41 -5 6 7 12 30 14 52 l3 40 45
-1 c25 -1 59 -4 77 -6 23 -3 30 -1 23 7 -14 17 -2 25 23 16 20 -7 22 -17 25
-86z m-872 -174 c17 -13 41 -16 130 -15 63 1 117 -3 129 -9 11 -6 23 -10 28
-9 4 1 7 -1 7 -6 0 -4 62 -6 138 -5 154 3 163 4 158 12 -2 3 2 12 10 19 8 7
14 9 14 5 0 -4 54 -8 120 -7 112 1 122 3 145 24 29 27 31 21 10 -20 -14 -26
-13 -30 3 -40 12 -8 13 -13 5 -16 -9 -4 -10 -11 -3 -23 5 -10 6 -22 2 -26 -4
-3 -7 -12 -7 -18 0 -7 -6 -13 -12 -13 -7 -1 -16 -3 -20 -4 -5 -1 -11 -2 -15
-1 -12 2 -9 -14 4 -27 10 -10 10 -15 -2 -22 -22 -14 -35 -6 -33 21 1 23 -2 24
-45 22 -26 -2 -51 -4 -57 -4 -5 0 -160 2 -343 4 -314 4 -332 3 -317 -13 14
-15 14 -19 1 -29 -21 -18 -39 -3 -32 25 5 19 2 24 -13 24 -11 0 -23 5 -27 12
-5 7 -3 8 6 3 10 -6 11 -4 4 6 -13 19 -13 83 -1 91 6 4 4 12 -6 23 -14 14 -17
36 -15 128 l2 112 5 -103 c5 -89 9 -106 27 -121z m901 157 c-2 -13 -4 -5 -4
17 -1 22 1 32 4 23 2 -10 2 -28 0 -40z m-357 11 c0 -5 5 -7 10 -4 6 3 10 2 10
-3 0 -15 -32 -24 -43 -13 -10 10 -1 31 14 31 5 0 9 -5 9 -11z m-255 -39 c3 -5
1 -10 -4 -10 -6 0 -11 5 -11 10 0 6 2 10 4 10 3 0 8 -4 11 -10z m612 -67 c-2
-16 -4 -5 -4 22 0 28 2 40 4 28 2 -13 2 -35 0 -50z m-145 -352 c-45 -39 -190
-126 -198 -119 -4 4 226 158 236 157 3 0 -14 -17 -38 -38z"/>
<path d="M1130 825 l0 -35 2135 0 2136 0 -3 35 -2 35 -2133 0 -2133 0 0 -35z"/>
<path d="M1241 693 c-18 -9 -45 -34 -60 -57 -24 -36 -26 -48 -26 -137 0 -108
10 -133 75 -176 39 -27 121 -31 175 -9 33 14 35 18 35 60 0 26 -2 46 -5 46 -2
0 -21 -11 -41 -25 -42 -29 -64 -31 -103 -10 -63 32 -75 162 -20 221 28 30 81
32 127 4 18 -11 35 -20 37 -20 3 0 5 20 5 44 0 42 -2 45 -40 60 -52 20 -116
20 -159 -1z"/>
<path d="M1590 703 c-72 -27 -109 -95 -110 -198 0 -131 61 -205 169 -205 70 0
113 24 141 81 61 119 19 280 -83 318 -30 12 -92 13 -117 4z m103 -88 c40 -39
47 -159 12 -211 -32 -49 -103 -36 -125 22 -17 45 -12 136 10 172 16 26 26 32
54 32 19 0 41 -7 49 -15z"/>
<path d="M2314 696 c-49 -22 -74 -61 -74 -118 0 -42 4 -54 30 -78 16 -15 51
-33 77 -39 58 -15 73 -27 73 -56 0 -48 -94 -51 -153 -5 -14 11 -28 20 -31 20
-3 0 -6 -20 -6 -46 0 -42 2 -46 35 -60 46 -19 139 -18 181 2 43 21 64 59 64
119 0 60 -25 85 -113 114 -56 19 -67 26 -67 45 0 12 5 27 12 34 20 20 82 14
122 -13 l36 -24 0 48 0 49 -44 11 c-58 14 -104 13 -142 -3z"/>
<path d="M3665 697 c-73 -33 -111 -117 -102 -224 9 -114 66 -173 169 -173 33
0 72 7 88 15 27 14 30 21 30 61 l0 45 -30 -21 c-16 -12 -45 -24 -64 -27 -27
-4 -39 0 -66 24 -29 26 -34 37 -38 90 -5 65 13 114 47 133 32 16 86 12 114
-10 14 -11 28 -20 31 -20 3 0 6 20 6 45 0 35 -4 47 -21 56 -34 18 -130 21
-164 6z"/>
<path d="M4281 694 c-57 -30 -84 -83 -89 -177 -3 -71 0 -88 20 -127 32 -62 77
-90 145 -90 92 0 142 42 164 137 23 99 -6 197 -73 246 -37 28 -122 33 -167 11z
m128 -85 c23 -25 36 -94 28 -146 -13 -75 -63 -111 -113 -79 -32 22 -44 54 -44
124 0 79 27 122 74 122 23 0 42 -7 55 -21z"/>
<path d="M1870 500 l0 -200 40 0 39 0 3 138 3 137 67 -137 67 -138 40 0 41 0
0 200 0 200 -40 0 -40 0 -1 -107 0 -108 -55 108 -54 107 -55 0 -55 0 0 -200z"/>
<path d="M2530 665 l0 -35 50 0 50 0 0 -165 0 -165 45 0 45 0 0 165 0 165 50
0 50 0 0 35 0 35 -145 0 -145 0 0 -35z"/>
<path d="M2860 500 l0 -200 45 0 45 0 0 75 c0 59 3 75 15 75 8 0 37 -34 65
-75 l51 -75 49 0 c28 0 50 3 50 6 0 3 -26 42 -57 86 -56 80 -56 81 -36 97 31
26 43 55 43 106 0 38 -5 52 -29 76 -29 28 -32 29 -135 29 l-106 0 0 -200z
m178 89 c4 -44 -17 -69 -59 -69 -29 0 -29 1 -29 56 l0 55 43 -3 c40 -3 42 -4
45 -39z"/>
<path d="M3212 534 l3 -166 37 -34 c34 -31 43 -34 99 -34 39 0 71 6 90 17 50
30 59 64 59 232 l0 151 -39 0 -39 0 -4 -144 c-3 -125 -6 -147 -22 -165 -24
-26 -58 -27 -81 -1 -15 16 -17 40 -18 165 l0 145 -44 0 -44 0 3 -166z"/>
<path d="M3870 665 l0 -35 50 0 50 0 0 -165 0 -165 45 0 45 0 0 165 0 165 50
0 50 0 0 35 0 35 -145 0 -145 0 0 -35z"/>
<path d="M4580 500 l0 -200 45 0 45 0 0 75 c0 101 18 101 84 0 l48 -75 49 0
c27 0 49 2 49 5 0 3 -24 42 -54 86 l-53 80 27 29 c50 53 49 132 -2 175 -27 23
-37 25 -134 25 l-104 0 0 -200z m180 110 c23 -44 -10 -90 -64 -90 -25 0 -26 3
-26 55 l0 55 40 0 c29 0 42 -5 50 -20z"/>
<path d="M4923 638 c2 -63 2 -63 32 -63 27 0 30 4 33 33 3 29 6 32 38 32 40 0
41 -6 13 -60 -13 -24 -28 -40 -39 -40 -10 0 -22 -10 -26 -22 -8 -26 17 -48 57
-48 36 0 51 -21 48 -67 -4 -44 -13 -53 -54 -53 -36 0 -55 16 -55 46 0 12 -7
24 -15 28 -51 19 -64 -57 -17 -104 79 -78 212 -20 212 93 0 44 -22 92 -50 107
-18 10 -17 13 15 70 61 108 59 110 -79 110 l-114 0 1 -62z"/>
<path d="M5182 673 c3 -24 8 -29 43 -33 l40 -5 3 -137 c2 -89 -1 -138 -8 -139
-5 -1 -23 -2 -39 -3 -38 -1 -55 -18 -46 -45 6 -20 13 -21 125 -21 111 0 119 1
125 20 8 24 -11 51 -34 49 -65 -6 -61 -16 -61 171 l0 170 -76 0 -75 0 3 -27z"/>
</g>
</svg>
